<svg xmlns="http://www.w3.org/2000/svg" xmlns:xlink="http://www.w3.org/1999/xlink" viewBox="0 0 399.99 400"><defs><style>.cls-1{fill:url(#linear-gradient);}.cls-2{fill:#181818;}.cls-3{fill:#fff;}</style><linearGradient id="linear-gradient" x1="54.57" y1="54.58" x2="345.42" y2="345.42" gradientUnits="userSpaceOnUse"><stop offset="0" stop-color="#f4c91a"/><stop offset="0.08" stop-color="#f2b71b"/><stop offset="0.23" stop-color="#ef991d"/><stop offset="0.4" stop-color="#ec811e"/><stop offset="0.57" stop-color="#ea701f"/><stop offset="0.76" stop-color="#e96620"/><stop offset="1" stop-color="#e96320"/></linearGradient></defs><g id="Layer_2" data-name="Layer 2"><g id="Layer_1-2" data-name="Layer 1"><path class="cls-1" d="M200,400a101.72,101.72,0,0,1-93.27-60.91L84,361.79a9.25,9.25,0,0,1-13.09,0L38.21,329.06a9.26,9.26,0,0,1,0-13.1l22.69-22.7a101.9,101.9,0,0,1,0-186.56L38.21,84a9.26,9.26,0,0,1,0-13.1L70.94,38.21a9.25,9.25,0,0,1,13.09,0l22.7,22.7a101.83,101.83,0,0,1,186.53,0L316,38.21a9.25,9.25,0,0,1,13.09,0l32.74,32.73a9.28,9.28,0,0,1,0,13.1L339.12,106.7a101.85,101.85,0,0,1,0,186.56l22.7,22.7a9.28,9.28,0,0,1,0,13.1l-32.74,32.73a9.25,9.25,0,0,1-13.09,0l-22.7-22.7A101.72,101.72,0,0,1,200,400Z"/><path class="cls-2" d="M363.66,134.53a92,92,0,0,0-41.47-24l33.05-33.05L322.51,44.76l-33.1,33.09a92.56,92.56,0,0,0-178.83,0L77.49,44.76,44.75,77.49l33.06,33.05a92.58,92.58,0,0,0,0,178.87l-33.1,33.1,32.74,32.73,33.09-33.09a92.56,92.56,0,0,0,178.83,0l33.1,33.09,32.73-32.73-33.1-33.1a92.55,92.55,0,0,0,41.52-154.88Zm-32.73,98.2a46.35,46.35,0,0,1-65.47,0L232.73,200l32.73-32.73a46.29,46.29,0,1,1,65.47,65.46Zm-98.2,98.2a46.29,46.29,0,1,1-65.47-65.46L200,232.73l32.73,32.74A46.33,46.33,0,0,1,232.73,330.93ZM69.06,232.73a46.29,46.29,0,0,1,65.47-65.46L167.26,200l-32.73,32.73A46.35,46.35,0,0,1,69.06,232.73Zm98.2-163.66a46.29,46.29,0,1,1,65.47,65.46L200,167.27l-32.74-32.74A46.33,46.33,0,0,1,167.26,69.07Z"/><path class="cls-3" d="M154,167.6a4.31,4.31,0,0,1,4.26,4.25v56.3A4.31,4.31,0,0,1,154,232.4h-4.35a6.92,6.92,0,0,1-5.28-2.59l-28.7-36.29v34.63a4.31,4.31,0,0,1-4.26,4.25h-5.37a4.3,4.3,0,0,1-4.26-4.25v-56.3a4.3,4.3,0,0,1,4.26-4.25h4.35a6.94,6.94,0,0,1,5.28,2.59l28.7,36.48V171.85a4.3,4.3,0,0,1,4.26-4.25Z"/><path class="cls-2" d="M154,167.6a4.31,4.31,0,0,1,4.26,4.25v56.3A4.31,4.31,0,0,1,154,232.4h-4.35a6.92,6.92,0,0,1-5.28-2.59l-28.7-36.29v34.63a4.31,4.31,0,0,1-4.26,4.25h-5.37a4.3,4.3,0,0,1-4.26-4.25v-56.3a4.3,4.3,0,0,1,4.26-4.25h4.35a6.94,6.94,0,0,1,5.28,2.59l28.7,36.48V171.85a4.3,4.3,0,0,1,4.26-4.25H154m0-9.26h-5.37a13.53,13.53,0,0,0-13.52,13.51v8.08L123,164.5a16.21,16.21,0,0,0-12.58-6.16h-4.35a13.53,13.53,0,0,0-13.52,13.51v56.3a13.53,13.53,0,0,0,13.52,13.51h5.37A13.53,13.53,0,0,0,125,228.15v-8l12.14,15.36a16.2,16.2,0,0,0,12.58,6.15H154a13.53,13.53,0,0,0,13.52-13.51v-56.3A13.53,13.53,0,0,0,154,158.34Z"/><path class="cls-3" d="M186.71,218.79l-4.17,10.56a4.8,4.8,0,0,1-4.44,3.05h-5.65a4,4,0,0,1-4-4,4.21,4.21,0,0,1,.28-1.57l23.33-56.2a5,5,0,0,1,4.54-3.05h6.75a5,5,0,0,1,4.54,3.05l23.33,56.2a4.21,4.21,0,0,1,.28,1.57,4,4,0,0,1-4,4H221a4.8,4.8,0,0,1-4.45-3.05l-4.16-10.56Zm5.56-13.88H206.8l-7.22-18.33Z"/><path class="cls-2" d="M203.37,167.6a5,5,0,0,1,4.54,3.05l23.33,56.2a4.21,4.21,0,0,1,.28,1.57,4,4,0,0,1-4,4H221a4.8,4.8,0,0,1-4.45-3.05l-4.16-10.56H186.71l-4.17,10.56a4.8,4.8,0,0,1-4.44,3.05h-5.65a4,4,0,0,1-4-4,4.21,4.21,0,0,1,.28-1.57l23.33-56.2a5,5,0,0,1,4.54-3.05h6.75m-11.1,37.31H206.8l-7.22-18.33-7.31,18.33m11.1-46.57h-6.75a14.31,14.31,0,0,0-13,8.51l-.06.13-.05.12L160.2,223.3l0,.06,0,0a13.73,13.73,0,0,0-.94,5,13.26,13.26,0,0,0,13.24,13.24h5.65a14,14,0,0,0,13-8.87v0l1.85-4.7h13.05l1.85,4.7v0a14,14,0,0,0,13,8.87h6.57a13.26,13.26,0,0,0,13.24-13.24,13.73,13.73,0,0,0-.94-5l0-.06,0,0-23.33-56.2-.05-.12-.06-.13a14.31,14.31,0,0,0-13-8.51Z"/><path class="cls-3" d="M293.92,167.6h-4.35a7,7,0,0,0-5.28,2.59l-14.35,18.14v.1l-14.35-18.24a6.92,6.92,0,0,0-5.28-2.59H246a4.31,4.31,0,0,0-4.26,4.25v56.3A4.31,4.31,0,0,0,246,232.4h5.37a4.3,4.3,0,0,0,4.26-4.25V193.52l14.35,18,14.35-18.24v34.82a4.31,4.31,0,0,0,4.26,4.25h5.37a4.3,4.3,0,0,0,4.26-4.25v-56.3A4.3,4.3,0,0,0,293.92,167.6Z"/><path class="cls-2" d="M293.92,167.6a4.3,4.3,0,0,1,4.26,4.25v56.3a4.3,4.3,0,0,1-4.26,4.25h-5.37a4.31,4.31,0,0,1-4.26-4.25V193.33l-14.35,18.24-14.35-18v34.63a4.3,4.3,0,0,1-4.26,4.25H246a4.31,4.31,0,0,1-4.26-4.25v-56.3A4.31,4.31,0,0,1,246,167.6h4.35a6.92,6.92,0,0,1,5.28,2.59l14.35,18.24v-.1l14.35-18.14a7,7,0,0,1,5.28-2.59h4.35m0-9.26h-4.35A16.23,16.23,0,0,0,277,164.49l-7.07,8.94-7-8.93a16.23,16.23,0,0,0-12.59-6.16H246a13.52,13.52,0,0,0-13.51,13.51v56.3A13.52,13.52,0,0,0,246,241.66h5.37a13.53,13.53,0,0,0,13.52-13.51v-8.1L270,226.5l5-6.43v8.08a13.53,13.53,0,0,0,13.52,13.51h5.37a13.53,13.53,0,0,0,13.52-13.51v-56.3a13.53,13.53,0,0,0-13.52-13.51Z"/></g></g></svg>